<?xml version="1.0" encoding="utf-8"?>
<!-- Generator: Adobe Illustrator 15.0.0, SVG Export Plug-In . SVG Version: 6.00 Build 0)  -->
<!DOCTYPE svg PUBLIC "-//W3C//DTD SVG 1.1//EN" "http://www.w3.org/Graphics/SVG/1.1/DTD/svg11.dtd">
<svg version="1.1" id="Layer_1" xmlns="http://www.w3.org/2000/svg" xmlns:xlink="http://www.w3.org/1999/xlink" x="0px" y="0px"
	 width="1440px" height="651px" viewBox="0 0 1440 651" enable-background="new 0 0 1440 651" xml:space="preserve">
<image overflow="visible" width="1440" height="651" xlink:href="c01_sunset.jpg"  transform="matrix(1 0 0 1 -4.882812e-04 0)">
</image>
<path id="over4" opacity="0.2" d="M0,0v651h1440V0H0z M1113.959,557.936l-7.629,4.393l0.232,11.094v21.959v23.574H1027L984.5,601
	l0.5-45.5l-38.5,2l-50.498-5.111v-82.975l1.85-0.926v-22.42h-8.32V137.744l15.715-25.424h14.793l15.023-25.656h36.979v7.166h11.789
	V77.188l4.16-6.471h61.713V339.98l-9.938,5.549v51.541h17.104v18.49h57.09V557.936z"/>
<path id="over3" opacity="0.2" d="M0,0v651.001h1440V0H0z M845.918,387.138l-8.717,7.023v168.453v59.084h-33.535v-156.9h-89.911
	l-1.041-67.773h-5.072V212.699l0.779-6.764h5.334l2.211-51.252l56.715,22.373h19.121l-3.902,13.658v5.854h11.969v-12.227
	l1.561-4.033l34.471-21.854h10.018V387.138z"/>
<path id="over2" opacity="0.2" d="M0,0v651h1440V0H0z M630.833,458.834h-73.668v107.105H541.9V268l2.133-2.133L628,255.334
	l2.834,8.332V458.834z"/>
<polygon id="over_1" opacity="0.2" points="0,0 0,651 270.898,651 270.898,600.043 273.578,580.137 273.578,355.805 
	311.094,363.461 342.869,355.805 364.307,368.055 406.416,357.719 449.676,387.195 456.566,383.75 466.137,383.75 466.137,584.348 
	429.003,600.043 429.003,636.029 408.33,651 1440,651 1440,0 "/>
<polygon id="zone4" opacity="0" fill="#3E3D4D" points="1113.625,413.468 1056.535,413.468 1056.535,394.978 1039.432,394.978 
	1039.432,343.437 1049.369,340.469 1049.369,68.623 987.656,68.623 983.496,75.094 983.496,91.736 971.707,91.736 971.707,84.57 
	934.729,84.57 919.705,110.227 904.912,110.227 889.197,135.65 889.197,443.976 897.518,443.976 897.518,466.396 895.668,467.321 
	895.668,550.296 946.166,555.407 984.666,553.407 984.166,598.907 1026.666,616.862 1106.229,616.862 1106.229,593.288 
	1106.229,571.329 1105.996,560.235 1113.625,555.843 "/>
<polygon id="zone3" opacity="0" fill="#8B8B94" points="836.33,158.729 801.859,180.583 800.299,184.616 800.299,196.842 
	788.33,196.842 788.33,190.989 792.232,177.331 773.111,177.331 716.397,154.958 714.186,206.209 708.852,206.209 708.073,212.973 
	708.073,397.299 713.145,397.299 714.186,465.072 804.096,465.072 804.096,621.973 837.631,621.973 837.631,562.889 
	837.631,394.436 846.348,387.412 846.348,158.729 "/>
<polygon id="zone2" opacity="0" fill="#A9ADAA" points="629.381,253.851 545.414,264.384 543.281,266.517 543.281,564.457 
	558.547,564.457 558.547,457.352 632.215,457.352 632.215,262.183 "/>
<polygon id="zone1" opacity="0" fill="#B8B5B5" points="428.992,600.044 466.126,584.349 466.126,383.751 456.556,383.751 
	449.665,387.196 406.405,357.72 364.296,368.056 342.858,355.806 311.084,363.462 273.567,355.806 273.567,580.138 270.888,600.044 
	270.888,651.001 408.319,651.001 428.992,636.03 "/>
</svg>
