<?xml version="1.0" encoding="utf-8"?>
<!-- Generator: Adobe Illustrator 15.0.0, SVG Export Plug-In . SVG Version: 6.00 Build 0)  -->
<!DOCTYPE svg PUBLIC "-//W3C//DTD SVG 1.1//EN" "http://www.w3.org/Graphics/SVG/1.1/DTD/svg11.dtd">
<svg version="1.1" id="Layer_1" xmlns="http://www.w3.org/2000/svg" xmlns:xlink="http://www.w3.org/1999/xlink" x="0px" y="0px"
	 width="1938.003px" height="656.095px" viewBox="0 0 1938.003 656.095" enable-background="new 0 0 1938.003 656.095"
	 xml:space="preserve">
<image overflow="visible" width="1920" height="650" xlink:href="c01_Sunset2.jpg"  transform="matrix(1.0094 0 0 1.0094 0 0)">
</image>
<polygon id="zone1" points="677.582,656.095 677.582,613.24 714.574,597.329 714.574,396.057 705.028,395.261 697.868,397.901 
	654.908,367.417 613.54,380.146 591.663,369.405 561.034,376.168 521.257,367.417 521.257,644.664 506.142,656.095 "/>
<polygon id="zone2" points="787.903,579.51 787.903,281.57 790.036,279.438 874.002,268.904 876.835,277.237 876.835,472.404 
	803.169,472.404 803.169,579.51 "/>
<polygon id="zone3" points="1054.611,474.508 1054.611,631.409 1088.146,631.409 1088.146,572.324 1088.146,403.871 
	1096.862,396.848 1096.862,168.167 1086.846,168.167 1052.374,190.02 1050.813,194.053 1050.813,206.28 1038.846,206.28 
	1038.846,200.427 1042.748,186.768 1023.626,186.768 966.911,164.394 964.7,215.646 959.367,215.646 958.586,222.41 
	958.586,406.735 963.659,406.735 964.7,474.508 "/>
<polygon id="zone4" points="1145.679,564.843 1145.679,481.868 1147.527,480.944 1147.527,458.524 1139.207,458.524 
	1139.207,150.198 1154.923,124.774 1169.715,124.774 1184.738,99.119 1221.718,99.119 1221.718,106.285 1233.506,106.285 
	1233.506,89.643 1237.666,83.172 1299.379,83.172 1299.379,352.437 1289.442,357.983 1289.442,409.524 1306.546,409.524 
	1306.546,428.015 1363.635,428.015 1363.635,570.392 1356.007,574.784 1356.238,585.878 1356.238,607.835 1356.238,631.409 
	1276.676,631.409 1234.176,613.454 1234.676,567.954 1196.176,569.954 "/>
<polygon id="over1" opacity="0.4" points="523.9,656.095 0,656.095 0,0 1938.003,0 1938.003,656.095 661.332,656.095 
	678.195,643.884 677.816,613.272 715.274,597.79 715.143,395.513 705.573,395.513 698.793,400.007 655.34,369.042 614.386,380.528 
	589.913,369.042 563.941,376.034 521.508,367.048 "/>
<path id="over2" opacity="0.4" d="M0,1.273v653.548h1938.003V1.273H0z M878.593,472.507h-66.007v6.133h-7.119v13.076h7.119v6.537
	h-7.119v16.562h7.119v9.445h-7.119v13.801h7.119v9.734h-7.119v13.658h7.119v8.426l-6.417-0.119h-15.267l0.008-288.309l2.133-2.133
	l83.967-10.533l2.834,8.333L878.593,472.507z"/>
<path id="over3" opacity="0.4" d="M0,0v656.095h1938.003V0H0z M1094.92,400.019l-8.717,7.023v168.453v59.084h-33.535v-156.9h-89.911
	l-1.041-67.773h-5.072V225.58l0.779-6.764h5.333l2.211-51.252l56.716,22.373h19.121l-3.902,13.659v5.854h11.969v-12.228l1.561-4.033
	l34.471-21.854h10.018V400.019z"/>
<path id="over4" opacity="0.4" d="M0,0v656.095h1938.003V0H0z M1362.961,569.968l-7.629,4.393l0.232,11.094v21.959v23.574h-79.562
	l-42.5-17.955l0.5-45.5l-38.5,2l-50.498-5.111v-82.975l1.85-0.926v-22.42h-8.32V149.776l15.715-25.424h14.793l15.023-25.656h36.979
	v7.166h11.789V89.221l4.16-6.472h61.713v269.264l-9.938,5.549v51.541h17.104v18.49h57.09V569.968z"/>
</svg>
